<svg width="28" height="28" viewBox="0 0 28 28" fill="none" xmlns="http://www.w3.org/2000/svg">
<path d="M14.19 0.651367C6.6472 0.651367 0.53125 6.92586 0.53125 14.6577C0.53125 20.8468 4.44595 26.0908 9.87286 27.9445C9.94898 27.961 10.0267 27.9692 10.1046 27.9689C10.6107 27.9689 10.8058 27.5969 10.8058 27.2737C10.8058 26.9384 10.7936 26.0603 10.7875 24.8896C10.3357 24.9955 9.87349 25.0507 9.40944 25.0542C6.78135 25.0542 6.18378 23.0115 6.18378 23.0115C5.56182 21.3956 4.66546 20.9627 4.66546 20.9627C3.47642 20.1273 4.65936 20.1029 4.75083 20.1029H4.75693C6.1289 20.2248 6.84842 21.5541 6.84842 21.5541C7.53136 22.7493 8.44601 23.0846 9.26309 23.0846C9.80337 23.0738 10.3353 22.9492 10.8241 22.7188C10.946 21.8163 11.2997 21.2005 11.69 20.8468C8.65943 20.4931 5.47035 19.2919 5.47035 13.926C5.47035 12.3955 6.00085 11.1454 6.87281 10.1698C6.73257 9.81614 6.26305 8.38929 7.00696 6.46243C7.10675 6.43856 7.20931 6.4283 7.31184 6.43195C7.80575 6.43195 8.92163 6.62097 10.7631 7.90148C13.0007 7.27544 15.3671 7.27544 17.6047 7.90148C19.4462 6.62097 20.562 6.43195 21.056 6.43195C21.1585 6.4283 21.2611 6.43856 21.3608 6.46243C22.1048 8.38929 21.6352 9.81614 21.495 10.1698C22.367 11.1515 22.8975 12.4016 22.8975 13.926C22.8975 19.3041 19.7023 20.487 16.6595 20.8346C17.1474 21.2675 17.5864 22.1212 17.5864 23.4261C17.5864 25.2981 17.5681 26.8103 17.5681 27.2676C17.5681 27.5969 17.7571 27.9689 18.2632 27.9689C18.3452 27.9692 18.4269 27.9611 18.5071 27.9445C23.9402 26.0908 27.8487 20.8407 27.8487 14.6577C27.8487 6.92586 21.7328 0.651367 14.19 0.651367Z" fill="black"/>
</svg>
