<svg width="28" height="29" viewBox="0 0 28 29" fill="none" xmlns="http://www.w3.org/2000/svg">
<path d="M25.664 0.821289H2.86543C1.61968 0.821289 0.53125 1.71764 0.53125 2.94876V25.7979C0.53125 27.0357 1.61968 28.1388 2.86543 28.1388H25.6573C26.9097 28.1388 27.8487 27.0284 27.8487 25.7979V2.94876C27.8561 1.71764 26.9097 0.821289 25.664 0.821289ZM8.99906 23.5918H5.08559V11.4239H8.99906V23.5918ZM7.1777 9.57386H7.14965C5.89719 9.57386 5.0862 8.64153 5.0862 7.47444C5.0862 6.28601 5.91853 5.37563 7.19904 5.37563C8.47955 5.37563 9.26309 6.2793 9.29114 7.47444C9.29053 8.64153 8.47954 9.57386 7.1777 9.57386ZM23.3017 23.5918H19.3883V16.9386C19.3883 15.3447 18.8187 14.2556 17.4029 14.2556C16.3211 14.2556 15.6809 14.9874 15.3961 15.7002C15.2894 15.9563 15.2607 16.3051 15.2607 16.6612V23.5918H11.3473V11.4239H15.2607V13.1172C15.8303 12.3062 16.7199 11.1391 18.7901 11.1391C21.359 11.1391 23.3023 12.8325 23.3023 16.4831L23.3017 23.5918Z" fill="black"/>
</svg>
