<svg width="30" height="24" viewBox="0 0 30 24" fill="none" xmlns="http://www.w3.org/2000/svg">
<path d="M29.8243 3.15726C28.7264 3.63431 27.5647 3.9486 26.3761 4.0902C27.6253 3.35871 28.5647 2.19661 29.0182 0.821854C27.8371 1.51247 26.5471 1.99704 25.2035 2.2548C24.6377 1.66182 23.9572 1.19009 23.2034 0.868285C22.4496 0.546475 21.6383 0.381308 20.8187 0.382823C17.5003 0.382823 14.8149 3.02921 14.8149 6.29145C14.8126 6.74522 14.8646 7.19763 14.9698 7.63903C12.5903 7.52748 10.2603 6.92048 8.12882 5.85684C5.99736 4.79321 4.11138 3.29638 2.59155 1.46211C2.05835 2.36098 1.77637 3.38655 1.77507 4.43167C1.77507 6.48048 2.84399 8.29148 4.45804 9.35248C3.50176 9.32978 2.56508 9.07668 1.72751 8.61466V8.68783C1.72751 11.5537 3.80071 13.9379 6.54466 14.4806C6.02867 14.6182 5.49694 14.6879 4.96293 14.6879C4.58401 14.6886 4.20595 14.6518 3.83425 14.5782C4.59707 16.9258 6.81723 18.6331 9.44714 18.6819C7.31015 20.3288 4.68647 21.219 1.98849 21.2124C1.50959 21.2117 1.03114 21.1832 0.555542 21.1271C3.30021 22.8797 6.49066 23.8067 9.74715 23.7978C20.8059 23.7978 26.8474 14.7916 26.8474 6.98049C26.8474 6.72439 26.8407 6.46828 26.8285 6.21828C28.0011 5.38416 29.0156 4.34759 29.8243 3.15726Z" fill="black"/>
</svg>
